<!-- Generated by IcoMoon.io -->
<svg version="1.1" fill="#23b123" xmlns="http://www.w3.org/2000/svg" viewBox="0 0 1024 1024">
<title></title>
<g id="icomoon-ignore">
</g>
<path d="M128 346.947v266.105h87.579l1.347-227.705 2.021-227.032 30.989-3.368c25.6-2.695 37.726-9.432 69.389-39.074l39.074-35.032h-230.4v266.105z"></path>
<path d="M678.4 100.379c14.821 10.779 33.011 26.947 40.421 36.379 10.779 13.474 20.211 17.516 46.484 19.537l33.011 2.021-2.695 227.032-2.695 227.705h96.337v-532.211h-237.811l26.947 19.537z"></path>
<path d="M460.8 94.316c-28.295 6.063-82.863 31.663-105.095 49.179-12.8 10.105-16.168 24.926-6.063 24.926 2.695 0 19.537 12.126 37.053 27.621 28.295 24.926 30.989 26.274 30.989 12.8 0-22.232 24.926-59.284 47.158-70.737 10.779-5.389 32.337-10.105 47.832-10.105 23.579 0 32.337 4.042 53.895 26.274 19.537 18.863 26.274 31.663 26.274 47.158 0 11.453 3.368 20.884 6.737 20.884 4.042 0 6.737-2.695 6.737-5.389s15.495-16.842 33.684-30.989l34.358-26.274-14.147-14.821c-36.379-39.074-136.084-64-199.411-50.526z"></path>
<path d="M481.011 184.589c-11.453 8.758-12.8 20.211-14.821 134.737l-2.021 125.305h-19.537c-12.126 0-29.642-8.758-47.832-24.253-35.705-29.642-51.874-36.379-90.947-36.379-35.032 0-37.726 8.084-12.8 45.811 22.232 33.684 51.874 50.526 99.705 55.916 59.284 6.737 72.084 22.232 72.084 84.211v49.179l-24.926 4.042c-71.411 12.126-173.137 49.179-251.284 92.968l-43.789 24.926h727.579l-43.789-24.253c-82.189-46.484-174.484-80.168-250.611-93.642l-25.6-4.042v-53.221c0-49.853 1.347-54.568 16.842-64.674 9.432-6.063 35.032-12.8 57.263-15.495 24.253-2.695 48.505-10.779 59.284-18.863 20.884-15.495 54.568-61.305 55.242-75.453 0-13.474-74.105-6.737-94.989 8.084-8.758 6.737-26.274 19.537-39.074 28.295-12.8 9.432-30.989 16.842-41.768 16.842h-18.189l-0.674-126.653c-0.674-109.811-2.021-127.326-12.126-134.737-14.821-10.779-37.053-10.105-53.221 1.347z"></path>
<path d="M286.316 229.053c-11.453 22.905-18.189 47.158-18.863 71.411l-1.347 37.053 43.789 2.695c43.116 2.695 89.6 16.842 97.684 30.316 8.758 14.147 16.842 5.389 16.842-18.863 0-49.853-39.074-108.463-95.663-142.147l-24.926-14.821-17.516 34.358z"></path>
<path d="M690.526 206.821c-55.242 28.968-97.011 89.6-97.684 141.474v28.295l30.989-16.168c24.926-13.474 41.768-16.842 77.474-16.842 42.442 0 46.484-1.347 49.853-15.495 5.389-19.537-6.737-72.758-23.579-106.442-7.411-14.147-14.147-26.274-15.495-26.274-0.674 0.674-10.105 5.389-21.558 11.453z"></path>
<path d="M55.916 877.137c-9.432 23.579-11.453 36.379-6.737 38.4 4.042 1.347 8.758-0.674 10.105-5.389 3.368-9.432 35.032-10.105 35.032-0.674 0 3.368 4.716 6.737 10.105 6.737 13.474 0 12.8-5.389-3.368-43.116-8.084-16.842-18.189-30.989-22.905-30.989s-14.821 16.168-22.232 35.032zM87.579 883.2c0 3.368-2.695 6.063-6.737 6.063-3.368 0-6.737-4.716-6.737-10.779 0-5.389 3.368-8.084 6.737-6.063 4.042 2.021 6.737 6.737 6.737 10.779z"></path>
<path d="M142.147 854.905c-16.842 16.842-17.516 26.274-3.368 46.484 8.084 12.126 16.168 14.821 35.032 13.474 21.558-2.021 24.926-4.716 26.947-20.884 2.021-15.495 0-18.189-14.821-18.189-18.189 0-24.253 10.105-8.758 15.495 4.042 1.347 6.063 5.389 3.368 8.084s-9.432 3.368-15.495 0.674c-28.295-10.779-14.147-48.505 15.495-41.095 11.453 2.695 15.495 1.347 13.474-4.716-5.389-14.821-37.053-14.147-51.874 0.674z"></path>
<path d="M222.316 879.158c0 28.295 2.021 37.053 10.105 37.053 6.063 0 10.105-6.063 10.105-14.821v-14.147l15.495 14.147c8.758 8.084 16.842 14.821 18.863 14.821 6.063 0 4.042-57.937-2.021-66.021-4.042-4.042-17.516-8.084-29.642-8.084h-22.905v37.053zM268.126 867.032c1.347 5.389-3.368 8.758-11.453 8.758s-14.147-4.042-14.147-10.779c0-12.126 20.884-10.105 25.6 2.021z"></path>
<path d="M303.158 879.158c0 28.295 2.021 37.053 10.105 37.053 6.063 0 10.105-6.063 10.105-14.821v-14.147l15.495 14.147c18.863 17.516 38.4 20.884 24.926 4.716-6.737-8.084-6.737-14.147-1.347-26.947 10.105-21.558-4.716-37.053-36.379-37.053h-22.905v37.053zM348.968 867.032c1.347 5.389-3.368 8.758-11.453 8.758s-14.147-4.042-14.147-10.779c0-12.126 20.884-10.105 25.6 2.021z"></path>
<path d="M388.042 856.926c-14.147 20.211-13.474 29.642 2.695 45.811 25.6 25.6 67.368 10.779 67.368-22.905 0-35.032-50.526-51.2-70.063-22.905zM436.547 876.463c2.695 20.211-14.821 30.989-29.642 18.863-11.453-9.432-12.126-20.884-1.347-31.663 12.8-12.8 28.968-6.063 30.989 12.8z"></path>
<path d="M512 879.158c0 28.295 2.021 37.053 10.105 37.053s10.105-8.758 10.105-37.053c0-28.295-2.021-37.053-10.105-37.053s-10.105 8.758-10.105 37.053z"></path>
<path d="M559.158 879.158c0 28.295 2.021 37.053 10.105 37.053 6.737 0 10.105-6.737 10.105-22.232l0.674-21.558 18.189 22.232c26.947 31.663 35.032 28.295 35.032-15.495 0-28.295-2.021-37.053-10.105-37.053-6.737 0-10.105 6.737-10.105 20.884v20.884l-17.516-20.884c-26.947-31.663-36.379-27.621-36.379 16.168z"></path>
<path d="M655.495 850.189c34.358 87.579 35.705 87.579 70.063 0 2.021-4.042-1.347-8.084-6.737-8.084-6.063 0-14.147 10.779-18.863 24.926l-8.084 24.926-9.432-24.926c-6.063-13.474-14.821-24.926-20.211-24.926s-8.758 4.042-6.737 8.084z"></path>
<path d="M747.789 879.158v37.053h26.947c14.821 0 26.947-3.368 26.947-6.737 0-4.042-7.411-6.737-16.842-6.737s-16.842-3.368-16.842-6.737c0-4.042 6.063-6.737 13.474-6.737s13.474-4.716 13.474-10.105c0-5.389-6.063-10.105-13.474-10.105s-13.474-3.368-13.474-6.737c0-4.042 7.411-6.737 16.842-6.737s16.842-3.368 16.842-6.737c0-4.042-12.126-6.737-26.947-6.737h-26.947v37.053z"></path>
<path d="M829.979 850.189c-13.474 13.474-9.432 25.6 12.126 35.032 23.579 9.432 19.537 19.537-5.389 12.8-12.126-2.695-15.495-1.347-13.474 5.389 1.347 5.389 12.126 10.105 23.579 11.453 36.379 3.368 46.484-33.011 11.453-41.768-8.758-2.695-16.168-7.411-16.168-11.453 0-4.716 6.737-6.063 17.516-3.368 12.8 3.368 16.842 2.021 14.821-4.042-4.042-12.126-33.684-14.821-44.463-4.042z"></path>
<path d="M896 848.842c0 3.368 4.716 6.737 10.105 6.737 7.411 0 10.105 8.084 10.105 30.316s2.695 30.316 10.105 30.316c7.411 0 10.105-8.084 10.105-30.316s2.695-30.316 10.105-30.316c5.389 0 10.105-3.368 10.105-6.737 0-4.042-13.474-6.737-30.316-6.737s-30.316 2.695-30.316 6.737z"></path>
</svg>
